<svg id="svg" version="1.1" xmlns="http://www.w3.org/2000/svg" xmlns:xlink="http://www.w3.org/1999/xlink" width="400" height="400" viewBox="0, 0, 400,400"><g id="svgg"><path id="path0" d="M220.508 52.742 C 212.964 53.298,195.412 55.780,194.657 56.398 C 194.541 56.492,173.851 133.384,173.590 134.685 L 173.350 135.887 175.249 135.305 C 183.654 132.730,191.589 131.567,201.927 131.397 C 208.122 131.296,210.380 131.132,210.610 130.767 C 211.738 128.976,252.012 53.837,251.899 53.734 C 250.989 52.902,228.140 52.180,220.508 52.742 M247.743 95.386 C 233.504 116.031,221.907 132.975,221.972 133.040 C 222.037 133.105,223.721 133.514,225.715 133.949 C 232.015 135.324,239.736 138.152,247.208 141.821 C 253.291 144.808,254.475 145.266,255.021 144.845 C 255.375 144.572,257.861 142.484,260.547 140.205 C 263.232 137.925,274.838 128.167,286.338 118.519 C 297.837 108.870,311.939 97.025,317.676 92.195 L 328.106 83.413 327.041 82.555 C 316.688 74.213,291.182 62.357,274.219 58.001 C 273.814 57.897,265.632 69.451,247.743 95.386 M174.023 62.478 C 163.613 66.363,154.237 70.885,144.683 76.626 C 139.694 79.624,136.409 81.876,128.013 88.056 C 127.346 88.548,127.376 89.287,128.712 104.930 C 130.398 124.669,133.197 158.585,133.201 159.313 C 133.202 159.601,134.588 158.615,136.281 157.121 C 143.429 150.811,151.535 145.338,159.628 141.355 C 164.779 138.821,165.169 138.551,165.378 137.384 C 166.073 133.491,178.105 63.980,178.323 62.598 C 178.631 60.639,178.926 60.648,174.023 62.478 M108.716 106.104 C 101.228 114.004,97.587 118.677,89.200 131.154 L 85.982 135.940 94.297 152.833 C 98.870 162.125,104.807 174.104,107.489 179.453 L 112.366 189.180 114.845 184.727 C 118.203 178.695,120.207 175.607,124.176 170.354 C 129.336 163.524,128.926 164.525,128.089 160.814 C 127.692 159.056,124.548 145.049,121.101 129.688 C 117.655 114.326,114.697 101.429,114.529 101.026 C 114.271 100.408,113.368 101.196,108.716 106.104 M196.484 135.806 C 132.737 142.048,92.334 204.140,112.897 264.266 C 117.271 277.055,125.842 290.674,135.488 300.162 L 138.234 302.862 140.615 300.658 C 149.344 292.576,167.259 290.804,199.316 294.851 C 202.271 295.224,204.688 295.473,204.688 295.405 C 204.688 295.234,184.394 252.624,184.239 252.468 C 184.170 252.399,181.868 252.798,179.122 253.354 C 176.377 253.910,174.006 254.218,173.853 254.038 C 173.320 253.409,169.823 235.605,170.055 234.701 C 170.216 234.078,172.121 232.543,176.063 229.861 C 193.252 218.164,270.870 165.063,271.416 164.626 C 271.960 164.191,262.228 156.439,255.859 152.234 C 237.558 140.150,215.226 133.971,196.484 135.806 M179.264 148.989 C 179.175 149.078,176.465 150.906,173.242 153.051 C 125.053 185.137,112.447 229.685,138.824 274.688 C 143.122 282.021,143.093 281.566,139.389 283.431 C 135.434 285.422,135.485 285.452,132.168 279.102 C 108.009 232.853,116.700 192.312,157.251 162.095 C 163.743 157.258,181.734 146.547,179.264 148.989 M76.187 155.676 C 74.482 159.562,72.071 166.093,70.495 171.094 C 69.381 174.628,67.188 182.435,67.188 182.866 C 67.188 183.261,103.312 215.182,103.919 215.324 C 104.206 215.391,104.719 213.740,105.313 210.838 C 105.830 208.312,107.052 203.830,108.028 200.877 C 109.005 197.924,109.738 195.156,109.657 194.727 C 109.527 194.029,78.363 151.953,77.977 151.953 C 77.890 151.953,77.085 153.628,76.187 155.676 M229.205 198.793 C 199.614 219.115,175.124 236.025,174.783 236.370 C 174.112 237.049,176.614 247.656,177.444 247.656 C 177.646 247.656,188.912 245.465,202.480 242.787 C 216.048 240.108,241.883 235.033,259.892 231.507 C 277.902 227.982,292.812 224.923,293.026 224.709 C 293.284 224.451,292.355 217.773,290.261 204.836 C 288.526 194.119,286.310 180.342,285.337 174.219 C 284.363 168.096,283.441 162.807,283.287 162.465 C 283.065 161.972,271.970 169.425,229.205 198.793 M64.303 198.708 C 63.351 201.801,62.249 221.514,62.677 227.787 L 62.953 231.846 77.473 236.853 C 85.458 239.607,94.694 242.803,97.997 243.954 L 104.001 246.048 103.690 244.020 C 103.519 242.905,103.354 237.550,103.322 232.121 C 103.291 226.622,103.105 222.099,102.902 221.910 C 102.703 221.723,94.453 216.574,84.570 210.468 C 74.688 204.362,66.133 199.059,65.561 198.684 C 64.567 198.031,64.511 198.032,64.303 198.708 M64.213 246.387 C 64.330 246.978,64.803 249.721,65.263 252.483 C 65.723 255.245,66.739 260.060,67.522 263.183 L 68.945 268.860 89.247 268.783 C 100.413 268.740,109.609 268.646,109.683 268.572 C 109.756 268.499,109.020 265.916,108.047 262.833 C 107.074 259.749,106.094 256.498,105.869 255.607 C 105.351 253.555,107.270 254.118,84.653 249.384 C 62.459 244.738,63.929 244.953,64.213 246.387 M195.398 255.598 C 192.400 256.162,191.027 256.582,191.102 256.914 C 191.835 260.186,240.562 364.063,241.363 364.063 C 245.354 364.063,260.075 354.328,263.861 349.185 C 268.063 343.477,268.019 340.448,263.557 328.125 C 256.288 308.054,245.317 292.945,227.539 278.524 C 222.727 274.621,216.952 269.372,211.115 263.596 C 200.880 253.467,202.460 254.271,195.398 255.598 M92.188 279.049 C 76.722 282.777,74.040 283.525,74.136 284.087 C 74.529 286.391,83.473 305.339,84.614 306.287 C 85.057 306.654,115.265 291.112,119.212 288.487 C 119.804 288.092,119.696 287.762,118.109 285.138 C 117.141 283.537,115.640 280.820,114.772 279.102 C 111.998 273.604,114.749 273.611,92.188 279.049 M164.844 298.306 C 151.682 299.596,144.868 301.696,141.734 305.430 C 140.582 306.802,125.196 341.733,125.577 342.113 C 125.643 342.180,127.343 341.790,129.353 341.246 C 143.949 337.296,165.208 337.796,194.695 342.784 C 200.263 343.725,204.948 344.417,205.105 344.320 C 205.262 344.222,207.620 340.097,210.346 335.152 L 215.301 326.161 211.884 318.647 C 206.624 307.081,204.044 301.694,203.646 301.448 C 203.268 301.214,185.167 299.152,177.344 298.452 C 173.090 298.071,167.864 298.010,164.844 298.306 M175.977 302.770 C 177.910 303.003,179.668 303.366,179.883 303.577 C 180.140 303.830,179.932 303.877,179.277 303.716 C 176.537 303.040,166.533 304.548,158.008 306.923 C 151.781 308.658,152.440 308.034,143.555 320.618 C 139.902 325.791,136.784 330.036,136.626 330.051 C 136.055 330.105,146.581 308.070,147.743 306.779 C 149.991 304.281,167.676 301.769,175.977 302.770 " stroke="none" fill="#fbfbfb" fill-rule="evenodd"></path><path id="path1" d="M185.742 0.241 C 155.556 3.195,134.209 9.051,110.688 20.828 C 31.278 60.590,-12.111 146.441,2.762 234.375 C 9.210 272.496,26.659 307.383,54.195 337.207 C 59.833 343.314,60.611 344.076,59.678 342.583 C 59.233 341.870,61.000 339.996,81.159 319.807 C 93.240 307.708,103.125 297.707,103.125 297.583 C 103.125 297.458,99.039 299.528,94.045 302.182 C 86.924 305.967,84.865 306.905,84.497 306.532 C 83.127 305.138,73.828 285.335,73.828 283.812 C 73.828 283.219,73.471 283.314,95.448 278.083 C 108.325 275.019,111.920 274.290,112.357 274.653 C 112.663 274.907,113.700 276.639,114.663 278.503 C 117.293 283.595,117.157 283.479,118.667 281.921 L 119.940 280.608 117.030 274.582 C 87.146 212.685,129.241 140.448,198.033 135.576 C 213.793 134.460,229.651 137.954,245.597 146.055 L 250.764 148.680 252.365 147.048 L 253.967 145.417 247.198 142.059 C 238.276 137.634,226.665 133.610,222.777 133.597 C 222.306 133.595,221.841 133.462,221.744 133.301 C 221.646 133.140,233.222 116.133,247.469 95.508 L 273.372 58.008 274.781 58.095 C 280.952 58.476,305.151 68.678,317.165 75.963 L 320.832 78.186 330.913 68.111 L 340.993 58.036 342.107 58.998 C 342.719 59.528,341.801 58.588,340.067 56.911 C 307.359 25.269,268.554 6.768,223.047 1.120 C 216.918 0.360,190.815 -0.256,185.742 0.241 M244.964 52.766 C 247.841 52.998,250.678 53.305,251.267 53.449 L 252.338 53.711 242.347 72.266 C 236.851 82.471,227.598 99.697,221.783 110.547 C 215.969 121.396,210.947 130.581,210.623 130.957 C 210.103 131.561,209.213 131.641,202.955 131.641 C 193.048 131.641,184.880 132.742,176.266 135.238 C 174.706 135.690,173.341 135.972,173.233 135.863 C 172.995 135.626,194.099 56.972,194.522 56.516 C 195.231 55.753,211.805 53.109,218.945 52.619 C 223.740 52.289,240.212 52.382,244.964 52.766 M178.688 62.012 C 178.080 65.295,166.038 134.864,165.819 136.361 C 165.461 138.798,165.689 138.604,159.766 141.499 C 151.433 145.572,142.637 151.544,136.055 157.597 L 133.243 160.183 133.035 158.900 C 132.920 158.194,132.206 149.883,131.449 140.430 C 130.692 130.977,129.460 116.123,128.711 107.422 C 126.887 86.223,126.613 88.882,130.957 85.635 C 143.401 76.332,157.616 68.517,172.070 63.032 C 178.510 60.588,178.964 60.518,178.688 62.012 M118.687 118.069 C 120.908 128.004,124.116 142.262,125.816 149.754 C 129.509 166.030,129.445 163.852,126.344 167.710 C 121.912 173.224,114.033 185.649,113.114 188.574 C 112.616 190.158,112.368 189.704,99.028 162.814 L 85.813 136.175 86.714 134.591 C 91.712 125.801,112.393 99.982,114.419 100.002 C 114.545 100.003,116.466 108.133,118.687 118.069 M172.061 152.772 C 124.901 178.967,108.156 220.269,126.218 265.843 L 128.636 271.943 131.312 269.267 L 133.989 266.590 132.185 262.494 C 116.855 227.698,126.099 192.544,157.938 164.560 C 162.915 160.186,170.318 154.525,174.170 152.147 C 176.254 150.860,176.866 150.391,176.456 150.391 C 176.397 150.391,174.420 151.462,172.061 152.772 M93.436 172.071 C 101.481 182.814,108.552 192.341,109.149 193.243 L 110.234 194.883 108.649 199.687 C 106.826 205.209,105.779 209.152,105.065 213.184 C 104.788 214.741,104.459 216.015,104.332 216.014 C 104.125 216.013,95.978 208.877,74.316 189.726 C 69.249 185.246,67.188 183.181,67.188 182.586 C 67.188 180.476,71.495 166.782,74.597 159.032 C 77.524 151.721,77.709 151.366,78.287 151.982 C 78.574 152.289,85.391 161.329,93.436 172.071 M83.984 209.900 C 94.404 216.340,103.059 221.801,103.217 222.035 C 103.375 222.269,103.512 226.504,103.522 231.445 C 103.533 236.387,103.699 241.657,103.893 243.158 C 104.086 244.659,104.174 245.956,104.089 246.041 C 103.890 246.240,63.636 232.404,62.988 231.914 C 61.552 230.828,63.151 197.072,64.598 197.930 C 64.841 198.074,73.564 203.460,83.984 209.900 M81.055 248.454 C 89.434 250.185,98.047 251.959,100.195 252.398 C 105.277 253.435,105.568 253.644,106.444 256.898 C 106.839 258.368,107.807 261.609,108.594 264.100 L 110.025 268.630 89.540 268.908 C 78.274 269.061,68.965 269.095,68.853 268.983 C 68.162 268.292,64.063 248.665,64.063 246.049 C 64.063 245.066,64.185 244.935,64.941 245.107 C 65.425 245.217,72.676 246.724,81.055 248.454 " stroke="none" fill="#f32434" fill-rule="evenodd"></path><path id="path2" d="M330.954 68.069 C 325.531 73.496,321.094 78.043,321.094 78.175 C 321.094 78.307,322.673 79.448,324.603 80.711 C 326.533 81.974,328.059 83.184,327.994 83.398 C 327.862 83.838,322.445 88.437,288.496 116.931 C 275.401 127.922,262.481 138.803,259.785 141.112 C 257.089 143.421,254.700 145.310,254.476 145.311 C 254.252 145.312,253.316 146.080,252.396 147.017 L 250.723 148.722 254.365 151.013 C 263.115 156.519,272.082 163.995,271.094 164.961 C 270.771 165.276,255.391 175.863,236.914 188.488 C 175.171 230.676,170.401 233.971,170.159 234.603 C 169.945 235.159,171.549 243.526,173.379 251.405 L 174.023 254.178 179.033 253.212 C 181.920 252.656,184.189 252.392,184.387 252.590 C 184.834 253.037,205.043 295.469,204.886 295.631 C 204.820 295.699,201.980 295.400,198.574 294.967 C 167.171 290.975,148.362 292.990,140.267 301.214 L 138.376 303.134 136.418 301.374 C 132.352 297.718,125.800 289.619,121.816 283.322 L 120.038 280.512 118.634 281.955 L 117.230 283.398 118.603 285.638 C 120.328 288.450,120.864 287.890,111.896 292.638 L 104.260 296.680 81.915 319.051 C 69.625 331.355,59.520 341.649,59.458 341.926 C 59.325 342.525,67.083 350.030,71.441 353.516 C 72.381 354.268,74.736 356.151,76.674 357.701 C 106.643 381.670,145.248 396.594,185.156 399.638 C 191.844 400.148,213.635 399.911,218.945 399.270 C 220.664 399.062,223.037 398.795,224.219 398.675 C 290.450 391.957,352.798 346.685,381.632 284.375 C 400.724 243.116,405.335 192.902,393.936 150.391 C 392.467 144.914,390.458 138.180,389.391 135.156 C 388.746 133.330,387.988 131.133,387.706 130.273 C 381.544 111.500,364.964 83.774,350.219 67.586 C 346.973 64.022,341.268 58.203,341.021 58.203 C 340.907 58.203,336.377 62.643,330.954 68.069 M285.523 174.316 C 286.642 181.245,288.869 195.000,290.472 204.883 C 292.075 214.766,293.336 223.377,293.275 224.018 L 293.164 225.185 280.664 227.645 C 273.789 228.998,249.355 233.784,226.367 238.281 C 203.379 242.778,182.947 246.792,180.962 247.201 C 178.342 247.740,177.264 247.824,177.026 247.507 C 176.484 246.784,174.122 237.703,174.274 236.923 C 174.397 236.287,282.415 161.719,283.214 161.719 C 283.365 161.719,284.405 167.388,285.523 174.316 M209.928 262.421 C 214.458 266.889,220.284 272.295,222.874 274.433 C 225.465 276.571,229.349 279.767,231.505 281.535 C 247.182 294.388,260.025 314.316,266.059 335.156 C 268.312 342.937,267.336 346.344,261.148 352.284 C 254.813 358.366,241.727 365.708,240.329 363.965 C 240.023 363.584,191.459 258.596,190.749 256.782 C 190.604 256.413,198.618 254.528,201.139 254.338 C 201.443 254.316,205.398 257.953,209.928 262.421 M131.239 269.347 L 128.712 271.896 131.545 277.508 C 133.102 280.594,134.708 283.528,135.113 284.028 L 135.849 284.937 139.233 283.260 L 142.617 281.583 141.328 279.345 C 140.619 278.113,138.721 274.791,137.109 271.962 C 133.658 265.900,134.349 266.209,131.239 269.347 M192.109 299.729 C 198.403 300.457,203.746 301.246,203.981 301.481 C 204.615 302.115,215.236 325.407,215.223 326.135 C 215.203 327.316,205.272 344.731,204.672 344.640 C 204.358 344.593,199.414 343.765,193.685 342.801 C 163.751 337.762,142.114 337.444,127.900 341.835 C 126.478 342.274,125.256 342.574,125.184 342.501 C 125.111 342.429,127.995 335.517,131.593 327.142 C 135.190 318.767,138.611 310.761,139.196 309.351 C 141.635 303.473,147.571 300.166,158.008 298.871 C 159.941 298.632,161.963 298.360,162.500 298.268 C 165.745 297.713,181.334 298.482,192.109 299.729 M164.258 302.997 C 157.533 303.831,148.647 305.843,147.851 306.712 C 147.231 307.389,137.050 328.586,137.249 328.786 C 137.334 328.870,140.610 324.443,144.529 318.948 C 148.715 313.079,152.080 308.739,152.683 308.430 C 156.047 306.708,168.141 304.040,174.414 303.636 C 177.943 303.409,178.432 303.308,177.148 303.070 C 175.576 302.778,166.440 302.726,164.258 302.997 " stroke="none" fill="#9c1424" fill-rule="evenodd"></path><path id="path3" d="M201.456 131.532 C 202.150 131.618,203.380 131.620,204.191 131.535 C 205.001 131.451,204.434 131.380,202.930 131.378 C 201.426 131.376,200.763 131.446,201.456 131.532 M202.447 135.437 C 203.041 135.526,203.919 135.524,204.400 135.431 C 204.880 135.339,204.395 135.265,203.320 135.268 C 202.246 135.271,201.853 135.347,202.447 135.437 M80.762 269.036 C 81.675 269.118,83.169 269.118,84.082 269.036 C 84.995 268.954,84.248 268.886,82.422 268.886 C 80.596 268.886,79.849 268.954,80.762 269.036 M171.191 292.863 C 171.997 292.947,173.315 292.947,174.121 292.863 C 174.927 292.778,174.268 292.709,172.656 292.709 C 171.045 292.709,170.386 292.778,171.191 292.863 M134.766 299.805 C 136.150 301.201,137.370 302.344,137.477 302.344 C 137.585 302.344,136.540 301.201,135.156 299.805 C 133.772 298.408,132.552 297.266,132.444 297.266 C 132.337 297.266,133.382 298.408,134.766 299.805 " stroke="none" fill="#e36c75" fill-rule="evenodd"></path><path id="path4" d="M222.559 52.619 C 223.042 52.713,223.833 52.713,224.316 52.619 C 224.800 52.526,224.404 52.450,223.438 52.450 C 222.471 52.450,222.075 52.526,222.559 52.619 M238.184 52.619 C 238.667 52.713,239.458 52.713,239.941 52.619 C 240.425 52.526,240.029 52.450,239.063 52.450 C 238.096 52.450,237.700 52.526,238.184 52.619 M113.048 101.283 L 111.914 102.539 113.140 101.433 C 114.032 100.629,114.424 100.469,114.574 100.847 C 114.710 101.188,114.793 101.207,114.813 100.902 C 114.878 99.918,114.136 100.079,113.048 101.283 M106.036 108.691 L 104.492 110.352 106.152 108.807 C 107.696 107.371,107.992 107.031,107.696 107.031 C 107.633 107.031,106.886 107.778,106.036 108.691 M197.759 131.530 C 198.353 131.620,199.232 131.618,199.712 131.525 C 200.193 131.432,199.707 131.359,198.633 131.362 C 197.559 131.365,197.166 131.441,197.759 131.530 M206.152 131.526 C 206.636 131.619,207.427 131.619,207.910 131.526 C 208.394 131.433,207.998 131.356,207.031 131.356 C 206.064 131.356,205.669 131.433,206.152 131.526 M151.746 170.410 L 149.414 172.852 151.855 170.520 C 154.123 168.354,154.476 167.969,154.187 167.969 C 154.127 167.969,153.028 169.067,151.746 170.410 M143.936 173.535 L 140.820 176.758 144.043 173.642 C 145.815 171.928,147.266 170.478,147.266 170.419 C 147.266 170.134,146.830 170.542,143.936 173.535 M62.606 215.234 C 62.606 216.201,62.683 216.597,62.776 216.113 C 62.869 215.630,62.869 214.839,62.776 214.355 C 62.683 213.872,62.606 214.268,62.606 215.234 M103.282 232.422 C 103.282 235.752,103.342 237.114,103.415 235.449 C 103.489 233.784,103.489 231.060,103.415 229.395 C 103.342 227.729,103.282 229.092,103.282 232.422 M62.612 229.883 C 62.615 230.957,62.691 231.350,62.780 230.756 C 62.870 230.163,62.868 229.284,62.775 228.803 C 62.682 228.323,62.609 228.809,62.612 229.883 M107.156 232.422 C 107.156 233.818,107.227 234.390,107.314 233.691 C 107.400 232.993,107.400 231.851,107.314 231.152 C 107.227 230.454,107.156 231.025,107.156 232.422 M73.340 269.038 C 74.468 269.117,76.313 269.117,77.441 269.038 C 78.569 268.959,77.646 268.895,75.391 268.895 C 73.135 268.895,72.212 268.959,73.340 269.038 M167.480 292.854 C 167.964 292.947,168.755 292.947,169.238 292.854 C 169.722 292.761,169.326 292.685,168.359 292.685 C 167.393 292.685,166.997 292.761,167.480 292.854 M176.079 292.854 C 176.565 292.948,177.268 292.944,177.641 292.847 C 178.015 292.749,177.617 292.672,176.758 292.677 C 175.898 292.681,175.593 292.761,176.079 292.854 M169.043 302.630 C 169.956 302.712,171.450 302.712,172.363 302.630 C 173.276 302.548,172.529 302.480,170.703 302.480 C 168.877 302.480,168.130 302.548,169.043 302.630 " stroke="none" fill="#ed8c94" fill-rule="evenodd"></path></g></svg>