<svg width="400" height="334" xmlns="http://www.w3.org/2000/svg" version="1.1">
 <g>
  <title>Layer 1</title>
  <g id="svgg">
   <path fill-rule="evenodd" fill="#045404" 
        d="m176.88,63.171c-9.158,4.923 -22.179,19.58 -59.115,66.542c-11.317,14.388 -28.234,35.899 -37.594,47.804c-9.36,11.904 -24.742,31.46 -34.182,43.456c-20.825,26.466 -21.36,27.247 -22.994,33.544c-4.537,17.49 19.86,20.471 35.092,4.288c9.681,-10.285 32.179,-36.86 55.321,-65.349c25.625,-31.543 24.528,-30.243 24.914,-29.554c0.346,0.618 -0.215,6.089 -2.086,20.326c-4.195,31.94 -3.998,46.86 0.674,50.791c5.136,4.321 20.987,8.99 32.211,9.486l4.194,0.185l2.766,-1.358c12.666,-6.222 50.859,-39.828 76.706,-67.493c4.052,-4.337 7.498,-7.936 7.656,-7.998c0.489,-0.19 0.335,1.551 -1.042,11.742c-2.634,19.495 -3.043,24.214 -3.069,35.35c-0.069,30.408 12.037,42.489 38.292,38.217c30.976,-5.04 69.799,-35.824 69.799,-55.345c0,-10.093 -10.482,-9.904 -27.517,0.496c-18.531,11.314 -31.079,13.046 -33.627,4.64c-0.728,-2.403 -0.529,-13.797 0.356,-20.391c1.663,-12.39 4.023,-28.166 7.605,-50.839c5.347,-33.848 5.77,-37.328 4.735,-38.909c-2.951,-4.503 -17.415,-10.599 -25.378,-10.695c-6.406,-0.077 -8.415,1.942 -41.998,42.222c-29.71,35.635 -38.321,44.602 -47.057,49.004c-9.678,4.876 -9.242,-7.304 2.524,-70.648c4.722,-25.425 4.892,-26.949 3.265,-29.353c-5.122,-7.568 -23.727,-13.775 -30.451,-10.161m-200.88,-63.171l20,0l0,20l-20,0l0,-20zm430,0l20,0l0,20l-20,0l0,-20z" id="path0"/>
   <path fill-rule="evenodd" fill="#982966" 
        d="m461,167.785l0,167.785l200,0l200,0l0,-167.785l0,-167.785l-200,0l-200,0l0,167.785m186.242,-105.207c8.291,1.638 17.117,6.363 20.089,10.754c1.627,2.404 1.457,3.928 -3.265,29.353c-10.404,56.008 -11.705,71.812 -5.911,71.812c6.645,0 18.19,-11.482 50.444,-50.168c33.583,-40.28 35.592,-42.299 41.998,-42.222c7.963,0.096 22.427,6.192 25.378,10.695c1.035,1.581 0.612,5.061 -4.735,38.909c-3.582,22.673 -5.942,38.449 -7.605,50.839c-0.885,6.594 -1.084,17.988 -0.356,20.391c2.548,8.406 15.096,6.674 33.627,-4.64c17.035,-10.4 27.517,-10.589 27.517,-0.496c0,19.521 -38.823,50.305 -69.799,55.345c-26.255,4.272 -38.361,-7.809 -38.292,-38.217c0.026,-11.136 0.435,-15.855 3.069,-35.35c1.377,-10.191 1.531,-11.932 1.042,-11.742c-0.158,0.062 -3.604,3.661 -7.656,7.998c-25.847,27.665 -64.04,61.271 -76.706,67.493l-2.766,1.358l-4.194,-0.185c-11.224,-0.496 -27.075,-5.165 -32.211,-9.486c-4.672,-3.931 -4.869,-18.851 -0.674,-50.791c1.871,-14.237 2.432,-19.708 2.086,-20.326c-0.386,-0.689 0.711,-1.989 -24.914,29.554c-23.142,28.489 -45.64,55.064 -55.321,65.349c-13.269,14.098 -35.61,14.165 -35.61,0.108c0,-7.745 0.915,-9.222 23.512,-37.94c9.44,-11.996 24.822,-31.552 34.182,-43.456c9.36,-11.905 26.277,-33.416 37.594,-47.804c36.936,-46.962 49.957,-61.619 59.115,-66.542c2.382,-1.28 5.873,-1.48 10.362,-0.593m-211.242,-62.578l20,0l0,20l-20,0l0,-20zm430,0l20,0l0,20l-20,0l0,-20z" id="path1"/>
  </g>
 </g>

</svg>